<svg enable-background="new 0 0 260 80" height="80" viewBox="0 0 260 80" width="260" xmlns="http://www.w3.org/2000/svg"><path d="m107.637 58.873-.957-.481-.958-.478-.958-.479-.957-.48-.957-.477-.957-.48-.956-.956-.96-.956-.955-.956-.958-.958-.479-.957-.479-.956-.477-.957-.479-.959-.479-.954-.477-.959v-16.27l.477-.957.479-.956.957-.958.958-.477.958-.48h1.915l.956.48.957.477.957.958.479.956.477.957v15.312l.479.958.479.959.958.954.957.48.957.479h2.872l.957-.479.956-.48.959-.954.477-.959.48-.958v-15.312l.478-.957.478-.956.957-.958.959-.477.956-.48h1.913l.958.48.957.477.957.958.48.956.479.957v16.27l-.479.959-.48.954-.476.959-.48.957-.478.956-.479.957-.958.958-.954.956-.959.956-.956.956-.959.48-.957.477-.956.48-.958.479-.959.478-.956.481z"/><path d="m140.174 58.873-.954-.481-.958-.478-.957-.479-.955-.48-.96-.477-.957-.48-.955-.956-.958-.956-.958-.956-.956-.958-.479-.957-.479-.956-.479-.957-.476-.959-.479-.954-.479-.959v-23.924l.479-.958.479-.957.955-.957.958-.477.956-.479h1.916l.955.479.957.477.96.957.476.957.479.958v5.262c0 .161.041.279.121.359.079.08.196.12.357.12h6.54l.957.479.955.477.959.957.478.959.477.956v1.915l-.477.955-.478.957-.959.958-.955.479-.957.476h-6.54c-.161 0-.278.082-.357.241-.081.078-.121.159-.121.239v7.176l.479.958.479.959.958.954.954.48.958.479h2.872l.954.477.958.48.959.956.479.957.479.958v1.912l-.479.956-.479.957-.959.959-.958.478-.954.481h-3.831z"/><path d="m163.145 58.873-.959-.481-.958-.478-.954-.479-.959-.48-.954-.477-.959-.48-.957-.956-.955-.956-.96-.956-.957-.958-.479-.957-.477-.956-.479-.957-.479-.959-.479-.954-.479-.959v-16.27l.479-.957.479-.956.958-.958.955-.477.957-.48h1.915l.957.48.959.477.954.958.477.956.482.957v15.312l.478.958.477.959.958.954.959.48.954.479h2.873l.956-.479.958-.48.956-.954.479-.959.478-.958v-15.312l.479-.957.478-.956.956-.958.957-.477.96-.48h1.912l.958.48.955.477.959.958.478.956.477.957v16.27l-.477.959-.478.954-.479.959-.48.957-.479.956-.477.957-.958.958-.957.956-.955.956-.96.956-.957.48-.956.477-.957.48-.957.479-.956.478-.958.481z"/><path d="m39.806 58.873-.956-.481-.96-.478-.955-.479-.957-.48-.956-.477-.958-.48-.957-.956-.957-.956-.958-.956-.956-.958-.479-.957-.479-.956-.478-.957-.479-.959-.478-.954-.478-.959v-16.27l.478-.957.478-.956.957-.958.958-.477.956-.48h1.915l.957.48.958.477.956.958.479.956.478.957v15.312l.479.958.477.959.96.954.956.48.956.479h2.871l.959-.479.956-.48.957-.954.479-.959.478-.958v-15.312l.479-.957.478-.956.959-.958.955-.477.957-.48h1.915l.957.48.956.477.958.958.478.956.477.957v16.27l-.477.959-.478.954-.479.959-.479.957-.478.956-.479.957-.957.958-.957.956-.958.956-.957.956-.955.48-.959.477-.958.48-.956.479-.957.478-.956.481z" fill="#4fb848"/><path d="m42.204 78.329c-21.139 0-38.336-17.196-38.336-38.335 0-21.133 17.197-38.323 38.336-38.323 21.131 0 38.323 17.19 38.323 38.323 0 21.139-17.192 38.335-38.323 38.335zm0-66.451c-15.513 0-28.128 12.617-28.128 28.116 0 15.512 12.615 28.127 28.128 28.127 15.499 0 28.115-12.615 28.115-28.127 0-15.499-12.616-28.116-28.115-28.116z" fill="#4fb848"/><path d="m220.561 26.332.959.48.959.477.953.479.961.479.953.479.959.477.957.957.957.959.955.956.961.957.479.958.474.955.479.957.479.958.479.955.479.958v16.269l-.479.956-.479.957-.959.959-.953.478-.961.481h-1.912l-.957-.481-.959-.478-.953-.959-.479-.957-.481-.956v-15.311l-.478-.958-.476-.958-.959-.955-.959-.479-.953-.479h-2.874l-.956.479-.956.479-.957.955-.477.958-.482.958v15.311l-.477.956-.479.957-.957.959-.956.478-.958.481h-1.912l-.96-.481-.953-.478-.959-.959-.479-.957-.475-.956v-16.269l.475-.958.479-.955.479-.958.479-.957.474-.955.479-.958.96-.957.954-.956.958-.959.958-.957.956-.477.957-.479.956-.479.959-.479.957-.477.956-.48z"/><path d="m201.422 34.945.959-.955.479-.958.48-.957v-1.915l-.48-.957-.479-.956-.959-.958-.954-.477-.96-.48h-3.828l-.954.48-.959.477-.959.479-.954.479-.958.48-.957.476-.958.957-.957.959-.956.956-.957.957-.479.958-.476.955-.48.957-.479.958-.478.955-.481.958v16.269l.481.956.478.957.959.959.955.478.957.481h1.913l.958-.481.957-.478.958-.959.478-.957.476-.956v-15.311l.48-.958.479-.958.959-.955.954-.478.959-.48h2.869l.96-.477z"/><path d="m254.218 34.945.953-.955.481-.958.48-.957v-1.915l-.48-.957-.481-.956-.953-.958-.959-.477-.954-.48h-3.833l-.953.48-.958.477-.957.479-.958.479-.957.48-.956.476-.959.957-.953.959-.961.956-.954.957-.481.958-.477.955-.476.957-.48.958-.479.955-.477.958v16.269l.477.956.479.957.956.959.958.478.954.481h1.914l.959-.481.956-.478.957-.959.482-.957.476-.956v-15.311l.48-.958.477-.958.958-.955.953-.478.963-.48h2.87l.954-.477z"/></svg>